M48
; DRILL file KiCad 10.0.6 date 2026-10-08T19:31:08
; FORMAT={-:-/ absolute / metric / decimal}
; #@! TF.CreationDate,2026-10-08T19:31:08+03:00
; #@! TF.GenerationSoftware,Kicad,Pcbnew,10.0.6
; #@! TF.FileFunction,Plated,1,2,PTH
FMAT,2
METRIC
; #@! TA.AperFunction,Plated,PTH,ComponentDrill
T1C0.700
; #@! TA.AperFunction,Plated,PTH,ComponentDrill
T2C0.800
; #@! TA.AperFunction,Plated,PTH,ComponentDrill
T3C0.889
; #@! TA.AperFunction,Plated,PTH,ComponentDrill
T4C1.000
; #@! TA.AperFunction,Plated,PTH,ComponentDrill
T5C1.500
%
G90
G05
T1
X131.69Y-37.0
X139.31Y-37.0
T2
X131.88Y-42.0
X134.42Y-42.0
X136.96Y-42.0
X139.5Y-42.0
T3
X155.38Y-49.698
X155.38Y-52.238
X155.38Y-54.778
X155.38Y-57.319
X155.38Y-59.858
X155.38Y-62.398
X155.38Y-64.938
X170.62Y-49.698
X170.62Y-52.238
X170.62Y-54.778
X170.62Y-57.319
X170.62Y-59.858
X170.62Y-62.398
X170.62Y-64.938
T4
X134.19Y-72.008
X136.73Y-72.008
X139.27Y-72.008
X141.81Y-72.008
X153.935Y-75.42
X153.935Y-77.96
X153.935Y-80.5
X153.935Y-83.04
X153.935Y-85.58
X153.935Y-88.12
X153.935Y-90.66
X153.935Y-93.2
T5
X109.19Y-54.96
X115.54Y-52.42
X117.69Y-82.46
X124.04Y-79.92
M30
