%TF.GenerationSoftware,KiCad,Pcbnew,10.0.6*%
%TF.CreationDate,2026-10-08T19:31:08+03:00*%
%TF.ProjectId,Starbie_HalfLife_Week1,53746172-6269-4655-9f48-616c664c6966,rev?*%
%TF.SameCoordinates,Original*%
%TF.FileFunction,Drillmap*%
%TF.FilePolarity,Positive*%
%FSLAX45Y45*%
G04 Gerber Fmt 4.5, Leading zero omitted, Abs format (unit mm)*
G04 Created by KiCad (PCBNEW 10.0.6) date 2026-10-08 19:31:08*
%MOMM*%
%LPD*%
G01*
G04 APERTURE LIST*
%ADD10C,0.050000*%
%ADD11C,0.200000*%
%ADD12C,0.170000*%
%ADD13C,0.290000*%
%ADD14C,0.100000*%
%ADD15C,0.400000*%
G04 APERTURE END LIST*
D10*
X12250000Y-3250000D02*
X12600000Y-3250000D01*
X12600000Y-2950000D02*
X12600000Y-3250000D01*
X11950000Y-3650000D02*
X12250000Y-3650000D01*
X11950000Y-3900000D02*
X11950000Y-3650000D01*
X11700000Y-3900000D02*
X11950000Y-3900000D01*
X11700000Y-4250000D02*
X11700000Y-3900000D01*
X8350000Y-4250000D02*
X8350000Y-4650000D01*
X8350000Y-4650000D02*
X8850000Y-4650000D01*
X8850000Y-4650000D02*
X8850000Y-5050000D01*
X8850000Y-5050000D02*
X9300000Y-5050000D01*
X8950000Y-10500000D02*
X8950000Y-11050000D01*
X8950000Y-11050000D02*
X9900000Y-11050000D01*
X9300000Y-5050000D02*
X9300000Y-5600000D01*
X9300000Y-5600000D02*
X9550000Y-5600000D01*
X9300000Y-9900000D02*
X9300000Y-10500000D01*
X9300000Y-10500000D02*
X8950000Y-10500000D01*
X9550000Y-5600000D02*
X9550000Y-6100000D01*
X9550000Y-6100000D02*
X9800000Y-6100000D01*
X9650000Y-9300000D02*
X9650000Y-9450000D01*
X9650000Y-9450000D02*
X9650000Y-9900000D01*
X9650000Y-9900000D02*
X9300000Y-9900000D01*
X9800000Y-6100000D02*
X9800000Y-6550000D01*
X9800000Y-6550000D02*
X10150000Y-6550000D01*
X9900000Y-10950000D02*
X9900000Y-11050000D01*
X10100000Y-8750000D02*
X10100000Y-9300000D01*
X10100000Y-9300000D02*
X9650000Y-9300000D01*
X10150000Y-6550000D02*
X10150000Y-6950000D01*
X10150000Y-6950000D02*
X10500000Y-6950000D01*
X10350000Y-8450000D02*
X10350000Y-8750000D01*
X10350000Y-8750000D02*
X10100000Y-8750000D01*
X10500000Y-6950000D02*
X10500000Y-7450000D01*
X10500000Y-7450000D02*
X10950000Y-7450000D01*
X10700000Y-8000000D02*
X10700000Y-8450000D01*
X10700000Y-8450000D02*
X10350000Y-8450000D01*
X10950000Y-7450000D02*
X10950000Y-8000000D01*
X10950000Y-8000000D02*
X10700000Y-8000000D01*
X11500000Y-10850000D02*
X11500000Y-10950000D01*
X11500000Y-10950000D02*
X9900000Y-10950000D01*
X11700000Y-4250000D02*
X8350000Y-4250000D01*
X11950000Y-10550000D02*
X11950000Y-10850000D01*
X11950000Y-10850000D02*
X11500000Y-10850000D01*
X12250000Y-3250000D02*
X12250000Y-3600000D01*
X12250000Y-3650000D02*
X12250000Y-3600000D01*
X12450000Y-10100000D02*
X12450000Y-10550000D01*
X12450000Y-10550000D02*
X11950000Y-10550000D01*
X12850000Y-9700000D02*
X12850000Y-10100000D01*
X12850000Y-10100000D02*
X12450000Y-10100000D01*
X12900000Y-2650000D02*
X12900000Y-2950000D01*
X12900000Y-2650000D02*
X13150000Y-2650000D01*
X12900000Y-2950000D02*
X12600000Y-2950000D01*
X13150000Y-2200000D02*
X13150000Y-2650000D01*
X13150000Y-2200000D02*
X14000000Y-2200000D01*
X13250000Y-9300000D02*
X13250000Y-9700000D01*
X13250000Y-9300000D02*
X13650000Y-9300000D01*
X13250000Y-9700000D02*
X12850000Y-9700000D01*
X13650000Y-9050000D02*
X13650000Y-9300000D01*
X13650000Y-9050000D02*
X14000000Y-9050000D01*
X14000000Y-2200000D02*
X14000000Y-2700000D01*
X14000000Y-2700000D02*
X14350000Y-2700000D01*
X14000000Y-9050000D02*
X14000000Y-9300000D01*
X14000000Y-9300000D02*
X14500000Y-9300000D01*
X14350000Y-2700000D02*
X14350000Y-3350000D01*
X14500000Y-9300000D02*
X14500000Y-9800000D01*
X14500000Y-9800000D02*
X15100000Y-9800000D01*
X14900000Y-3350000D02*
X14350000Y-3350000D01*
X14900000Y-3350000D02*
X14900000Y-4000000D01*
X14900000Y-4000000D02*
X15350000Y-4000000D01*
X15350000Y-4000000D02*
X15350000Y-4450000D01*
X15700000Y-9800000D02*
X15100000Y-9800000D01*
X15700000Y-9900000D02*
X15700000Y-9800000D01*
X15700000Y-9900000D02*
X16300000Y-9900000D01*
X16300000Y-10050000D02*
X16300000Y-9900000D01*
X16600000Y-7200000D02*
X16600000Y-7600000D01*
X16600000Y-7600000D02*
X16600000Y-7900000D01*
X16600000Y-7900000D02*
X16900000Y-7900000D01*
X16900000Y-7900000D02*
X16900000Y-8400000D01*
X16900000Y-8400000D02*
X17450000Y-8400000D01*
X16900000Y-10050000D02*
X16300000Y-10050000D01*
X16900000Y-10050000D02*
X16900000Y-10200000D01*
X17050000Y-7000000D02*
X17050000Y-7200000D01*
X17050000Y-7200000D02*
X16600000Y-7200000D01*
X17250000Y-7000000D02*
X17050000Y-7000000D01*
X17250000Y-7000000D02*
X17250000Y-6750000D01*
X17400000Y-6250000D02*
X17400000Y-6750000D01*
X17400000Y-6750000D02*
X17250000Y-6750000D01*
X17450000Y-8400000D02*
X17450000Y-8950000D01*
X17450000Y-8950000D02*
X17900000Y-8950000D01*
X17600000Y-5850000D02*
X17600000Y-6250000D01*
X17600000Y-6250000D02*
X17400000Y-6250000D01*
X17650000Y-10200000D02*
X16900000Y-10200000D01*
X17650000Y-10350000D02*
X17650000Y-10200000D01*
X17650000Y-10350000D02*
X18200000Y-10350000D01*
X17850000Y-5300000D02*
X17850000Y-5850000D01*
X17850000Y-5850000D02*
X17600000Y-5850000D01*
X17900000Y-8950000D02*
X17900000Y-9400000D01*
X17900000Y-9400000D02*
X18200000Y-9400000D01*
X18150000Y-4850000D02*
X18150000Y-5300000D01*
X18150000Y-5300000D02*
X17850000Y-5300000D01*
X18200000Y-9400000D02*
X18200000Y-9900000D01*
X18200000Y-9900000D02*
X18550000Y-9900000D01*
X18200000Y-10500000D02*
X18200000Y-10350000D01*
X18450000Y-4450000D02*
X15350000Y-4450000D01*
X18450000Y-4450000D02*
X18450000Y-4850000D01*
X18450000Y-4850000D02*
X18150000Y-4850000D01*
X18550000Y-10500000D02*
X18200000Y-10500000D01*
X18550000Y-10500000D02*
X18550000Y-9900000D01*
D11*
D12*
X10707000Y-5665000D02*
X10877000Y-5835000D01*
X10877000Y-5665000D02*
X10707000Y-5835000D01*
X11557000Y-8415000D02*
X11727000Y-8585000D01*
X11727000Y-8415000D02*
X11557000Y-8585000D01*
X11723000Y-5665000D02*
X11893000Y-5835000D01*
X11893000Y-5665000D02*
X11723000Y-5835000D01*
X12573000Y-8415000D02*
X12743000Y-8585000D01*
X12743000Y-8415000D02*
X12573000Y-8585000D01*
D13*
X12827400Y-4825900D02*
G75*
G02*
X12537400Y-4825900I-145000J0D01*
G01*
X12537400Y-4825900D02*
G75*
G02*
X12827400Y-4825900I145000J0D01*
G01*
D14*
X12727400Y-4680900D02*
X12637400Y-4680900D01*
X12637400Y-4970900D02*
G75*
G02*
X12637400Y-4680900I0J145000D01*
G01*
X12637400Y-4970900D02*
X12727400Y-4970900D01*
X12727400Y-4970900D02*
G75*
G03*
X12727400Y-4680900I0J145000D01*
G01*
D13*
X12827400Y-7137300D02*
G75*
G02*
X12537400Y-7137300I-145000J0D01*
G01*
X12537400Y-7137300D02*
G75*
G02*
X12827400Y-7137300I145000J0D01*
G01*
D14*
X12727400Y-6992300D02*
X12637400Y-6992300D01*
X12637400Y-7282300D02*
G75*
G02*
X12637400Y-6992300I0J145000D01*
G01*
X12637400Y-7282300D02*
X12727400Y-7282300D01*
X12727400Y-7282300D02*
G75*
G03*
X12727400Y-6992300I0J145000D01*
G01*
D13*
X15062600Y-4825900D02*
G75*
G02*
X14772600Y-4825900I-145000J0D01*
G01*
X14772600Y-4825900D02*
G75*
G02*
X15062600Y-4825900I145000J0D01*
G01*
D14*
X14962600Y-4680900D02*
X14872600Y-4680900D01*
X14872600Y-4970900D02*
G75*
G02*
X14872600Y-4680900I0J145000D01*
G01*
X14872600Y-4970900D02*
X14962600Y-4970900D01*
X14962600Y-4970900D02*
G75*
G03*
X14962600Y-4680900I0J145000D01*
G01*
D13*
X15062600Y-7137300D02*
G75*
G02*
X14772600Y-7137300I-145000J0D01*
G01*
X14772600Y-7137300D02*
G75*
G02*
X15062600Y-7137300I145000J0D01*
G01*
D14*
X14962600Y-6992300D02*
X14872600Y-6992300D01*
X14872600Y-7282300D02*
G75*
G02*
X14872600Y-6992300I0J145000D01*
G01*
X14872600Y-7282300D02*
X14962600Y-7282300D01*
X14962600Y-7282300D02*
G75*
G03*
X14962600Y-6992300I0J145000D01*
G01*
D15*
X11300000Y-5550000D02*
X11300000Y-5950000D01*
X11100000Y-5750000D02*
X11500000Y-5750000D01*
X12150000Y-8300000D02*
X12150000Y-8700000D01*
X11950000Y-8500000D02*
X12350000Y-8500000D01*
D11*
X8608277Y-11363984D02*
X8608277Y-11163984D01*
X8608277Y-11163984D02*
X8655896Y-11163984D01*
X8655896Y-11163984D02*
X8684467Y-11173508D01*
X8684467Y-11173508D02*
X8703515Y-11192555D01*
X8703515Y-11192555D02*
X8713039Y-11211603D01*
X8713039Y-11211603D02*
X8722563Y-11249698D01*
X8722563Y-11249698D02*
X8722563Y-11278269D01*
X8722563Y-11278269D02*
X8713039Y-11316365D01*
X8713039Y-11316365D02*
X8703515Y-11335412D01*
X8703515Y-11335412D02*
X8684467Y-11354460D01*
X8684467Y-11354460D02*
X8655896Y-11363984D01*
X8655896Y-11363984D02*
X8608277Y-11363984D01*
X8808277Y-11363984D02*
X8808277Y-11230650D01*
X8808277Y-11268746D02*
X8817801Y-11249698D01*
X8817801Y-11249698D02*
X8827324Y-11240174D01*
X8827324Y-11240174D02*
X8846372Y-11230650D01*
X8846372Y-11230650D02*
X8865420Y-11230650D01*
X8932086Y-11363984D02*
X8932086Y-11230650D01*
X8932086Y-11163984D02*
X8922563Y-11173508D01*
X8922563Y-11173508D02*
X8932086Y-11183031D01*
X8932086Y-11183031D02*
X8941610Y-11173508D01*
X8941610Y-11173508D02*
X8932086Y-11163984D01*
X8932086Y-11163984D02*
X8932086Y-11183031D01*
X9055896Y-11363984D02*
X9036848Y-11354460D01*
X9036848Y-11354460D02*
X9027324Y-11335412D01*
X9027324Y-11335412D02*
X9027324Y-11163984D01*
X9160658Y-11363984D02*
X9141610Y-11354460D01*
X9141610Y-11354460D02*
X9132086Y-11335412D01*
X9132086Y-11335412D02*
X9132086Y-11163984D01*
X9389229Y-11363984D02*
X9389229Y-11163984D01*
X9389229Y-11163984D02*
X9455896Y-11306841D01*
X9455896Y-11306841D02*
X9522563Y-11163984D01*
X9522563Y-11163984D02*
X9522563Y-11363984D01*
X9703515Y-11363984D02*
X9703515Y-11259222D01*
X9703515Y-11259222D02*
X9693991Y-11240174D01*
X9693991Y-11240174D02*
X9674944Y-11230650D01*
X9674944Y-11230650D02*
X9636848Y-11230650D01*
X9636848Y-11230650D02*
X9617801Y-11240174D01*
X9703515Y-11354460D02*
X9684467Y-11363984D01*
X9684467Y-11363984D02*
X9636848Y-11363984D01*
X9636848Y-11363984D02*
X9617801Y-11354460D01*
X9617801Y-11354460D02*
X9608277Y-11335412D01*
X9608277Y-11335412D02*
X9608277Y-11316365D01*
X9608277Y-11316365D02*
X9617801Y-11297317D01*
X9617801Y-11297317D02*
X9636848Y-11287793D01*
X9636848Y-11287793D02*
X9684467Y-11287793D01*
X9684467Y-11287793D02*
X9703515Y-11278269D01*
X9798753Y-11230650D02*
X9798753Y-11430650D01*
X9798753Y-11240174D02*
X9817801Y-11230650D01*
X9817801Y-11230650D02*
X9855896Y-11230650D01*
X9855896Y-11230650D02*
X9874944Y-11240174D01*
X9874944Y-11240174D02*
X9884467Y-11249698D01*
X9884467Y-11249698D02*
X9893991Y-11268746D01*
X9893991Y-11268746D02*
X9893991Y-11325888D01*
X9893991Y-11325888D02*
X9884467Y-11344936D01*
X9884467Y-11344936D02*
X9874944Y-11354460D01*
X9874944Y-11354460D02*
X9855896Y-11363984D01*
X9855896Y-11363984D02*
X9817801Y-11363984D01*
X9817801Y-11363984D02*
X9798753Y-11354460D01*
X9979705Y-11344936D02*
X9989229Y-11354460D01*
X9989229Y-11354460D02*
X9979705Y-11363984D01*
X9979705Y-11363984D02*
X9970182Y-11354460D01*
X9970182Y-11354460D02*
X9979705Y-11344936D01*
X9979705Y-11344936D02*
X9979705Y-11363984D01*
X9979705Y-11240174D02*
X9989229Y-11249698D01*
X9989229Y-11249698D02*
X9979705Y-11259222D01*
X9979705Y-11259222D02*
X9970182Y-11249698D01*
X9970182Y-11249698D02*
X9979705Y-11240174D01*
X9979705Y-11240174D02*
X9979705Y-11259222D01*
D12*
X8177500Y-11607500D02*
X8347500Y-11777500D01*
X8347500Y-11607500D02*
X8177500Y-11777500D01*
D11*
X8713039Y-11783984D02*
X8598753Y-11783984D01*
X8655896Y-11783984D02*
X8655896Y-11583984D01*
X8655896Y-11583984D02*
X8636848Y-11612555D01*
X8636848Y-11612555D02*
X8617801Y-11631603D01*
X8617801Y-11631603D02*
X8598753Y-11641127D01*
X8798753Y-11764936D02*
X8808277Y-11774460D01*
X8808277Y-11774460D02*
X8798753Y-11783984D01*
X8798753Y-11783984D02*
X8789229Y-11774460D01*
X8789229Y-11774460D02*
X8798753Y-11764936D01*
X8798753Y-11764936D02*
X8798753Y-11783984D01*
X8874944Y-11583984D02*
X9008277Y-11583984D01*
X9008277Y-11583984D02*
X8922563Y-11783984D01*
X9122563Y-11583984D02*
X9141610Y-11583984D01*
X9141610Y-11583984D02*
X9160658Y-11593508D01*
X9160658Y-11593508D02*
X9170182Y-11603031D01*
X9170182Y-11603031D02*
X9179705Y-11622079D01*
X9179705Y-11622079D02*
X9189229Y-11660174D01*
X9189229Y-11660174D02*
X9189229Y-11707793D01*
X9189229Y-11707793D02*
X9179705Y-11745888D01*
X9179705Y-11745888D02*
X9170182Y-11764936D01*
X9170182Y-11764936D02*
X9160658Y-11774460D01*
X9160658Y-11774460D02*
X9141610Y-11783984D01*
X9141610Y-11783984D02*
X9122563Y-11783984D01*
X9122563Y-11783984D02*
X9103515Y-11774460D01*
X9103515Y-11774460D02*
X9093991Y-11764936D01*
X9093991Y-11764936D02*
X9084467Y-11745888D01*
X9084467Y-11745888D02*
X9074944Y-11707793D01*
X9074944Y-11707793D02*
X9074944Y-11660174D01*
X9074944Y-11660174D02*
X9084467Y-11622079D01*
X9084467Y-11622079D02*
X9093991Y-11603031D01*
X9093991Y-11603031D02*
X9103515Y-11593508D01*
X9103515Y-11593508D02*
X9122563Y-11583984D01*
X9313039Y-11583984D02*
X9332086Y-11583984D01*
X9332086Y-11583984D02*
X9351134Y-11593508D01*
X9351134Y-11593508D02*
X9360658Y-11603031D01*
X9360658Y-11603031D02*
X9370182Y-11622079D01*
X9370182Y-11622079D02*
X9379705Y-11660174D01*
X9379705Y-11660174D02*
X9379705Y-11707793D01*
X9379705Y-11707793D02*
X9370182Y-11745888D01*
X9370182Y-11745888D02*
X9360658Y-11764936D01*
X9360658Y-11764936D02*
X9351134Y-11774460D01*
X9351134Y-11774460D02*
X9332086Y-11783984D01*
X9332086Y-11783984D02*
X9313039Y-11783984D01*
X9313039Y-11783984D02*
X9293991Y-11774460D01*
X9293991Y-11774460D02*
X9284467Y-11764936D01*
X9284467Y-11764936D02*
X9274944Y-11745888D01*
X9274944Y-11745888D02*
X9265420Y-11707793D01*
X9265420Y-11707793D02*
X9265420Y-11660174D01*
X9265420Y-11660174D02*
X9274944Y-11622079D01*
X9274944Y-11622079D02*
X9284467Y-11603031D01*
X9284467Y-11603031D02*
X9293991Y-11593508D01*
X9293991Y-11593508D02*
X9313039Y-11583984D01*
X9465420Y-11783984D02*
X9465420Y-11650650D01*
X9465420Y-11669698D02*
X9474944Y-11660174D01*
X9474944Y-11660174D02*
X9493991Y-11650650D01*
X9493991Y-11650650D02*
X9522563Y-11650650D01*
X9522563Y-11650650D02*
X9541610Y-11660174D01*
X9541610Y-11660174D02*
X9551134Y-11679222D01*
X9551134Y-11679222D02*
X9551134Y-11783984D01*
X9551134Y-11679222D02*
X9560658Y-11660174D01*
X9560658Y-11660174D02*
X9579705Y-11650650D01*
X9579705Y-11650650D02*
X9608277Y-11650650D01*
X9608277Y-11650650D02*
X9627325Y-11660174D01*
X9627325Y-11660174D02*
X9636848Y-11679222D01*
X9636848Y-11679222D02*
X9636848Y-11783984D01*
X9732086Y-11783984D02*
X9732086Y-11650650D01*
X9732086Y-11669698D02*
X9741610Y-11660174D01*
X9741610Y-11660174D02*
X9760658Y-11650650D01*
X9760658Y-11650650D02*
X9789229Y-11650650D01*
X9789229Y-11650650D02*
X9808277Y-11660174D01*
X9808277Y-11660174D02*
X9817801Y-11679222D01*
X9817801Y-11679222D02*
X9817801Y-11783984D01*
X9817801Y-11679222D02*
X9827325Y-11660174D01*
X9827325Y-11660174D02*
X9846372Y-11650650D01*
X9846372Y-11650650D02*
X9874944Y-11650650D01*
X9874944Y-11650650D02*
X9893991Y-11660174D01*
X9893991Y-11660174D02*
X9903515Y-11679222D01*
X9903515Y-11679222D02*
X9903515Y-11783984D01*
X10293991Y-11574460D02*
X10122563Y-11831603D01*
X10551134Y-11583984D02*
X10570182Y-11583984D01*
X10570182Y-11583984D02*
X10589229Y-11593508D01*
X10589229Y-11593508D02*
X10598753Y-11603031D01*
X10598753Y-11603031D02*
X10608277Y-11622079D01*
X10608277Y-11622079D02*
X10617801Y-11660174D01*
X10617801Y-11660174D02*
X10617801Y-11707793D01*
X10617801Y-11707793D02*
X10608277Y-11745888D01*
X10608277Y-11745888D02*
X10598753Y-11764936D01*
X10598753Y-11764936D02*
X10589229Y-11774460D01*
X10589229Y-11774460D02*
X10570182Y-11783984D01*
X10570182Y-11783984D02*
X10551134Y-11783984D01*
X10551134Y-11783984D02*
X10532087Y-11774460D01*
X10532087Y-11774460D02*
X10522563Y-11764936D01*
X10522563Y-11764936D02*
X10513039Y-11745888D01*
X10513039Y-11745888D02*
X10503515Y-11707793D01*
X10503515Y-11707793D02*
X10503515Y-11660174D01*
X10503515Y-11660174D02*
X10513039Y-11622079D01*
X10513039Y-11622079D02*
X10522563Y-11603031D01*
X10522563Y-11603031D02*
X10532087Y-11593508D01*
X10532087Y-11593508D02*
X10551134Y-11583984D01*
X10703515Y-11764936D02*
X10713039Y-11774460D01*
X10713039Y-11774460D02*
X10703515Y-11783984D01*
X10703515Y-11783984D02*
X10693991Y-11774460D01*
X10693991Y-11774460D02*
X10703515Y-11764936D01*
X10703515Y-11764936D02*
X10703515Y-11783984D01*
X10836848Y-11583984D02*
X10855896Y-11583984D01*
X10855896Y-11583984D02*
X10874944Y-11593508D01*
X10874944Y-11593508D02*
X10884468Y-11603031D01*
X10884468Y-11603031D02*
X10893991Y-11622079D01*
X10893991Y-11622079D02*
X10903515Y-11660174D01*
X10903515Y-11660174D02*
X10903515Y-11707793D01*
X10903515Y-11707793D02*
X10893991Y-11745888D01*
X10893991Y-11745888D02*
X10884468Y-11764936D01*
X10884468Y-11764936D02*
X10874944Y-11774460D01*
X10874944Y-11774460D02*
X10855896Y-11783984D01*
X10855896Y-11783984D02*
X10836848Y-11783984D01*
X10836848Y-11783984D02*
X10817801Y-11774460D01*
X10817801Y-11774460D02*
X10808277Y-11764936D01*
X10808277Y-11764936D02*
X10798753Y-11745888D01*
X10798753Y-11745888D02*
X10789229Y-11707793D01*
X10789229Y-11707793D02*
X10789229Y-11660174D01*
X10789229Y-11660174D02*
X10798753Y-11622079D01*
X10798753Y-11622079D02*
X10808277Y-11603031D01*
X10808277Y-11603031D02*
X10817801Y-11593508D01*
X10817801Y-11593508D02*
X10836848Y-11583984D01*
X11074944Y-11583984D02*
X11036848Y-11583984D01*
X11036848Y-11583984D02*
X11017801Y-11593508D01*
X11017801Y-11593508D02*
X11008277Y-11603031D01*
X11008277Y-11603031D02*
X10989229Y-11631603D01*
X10989229Y-11631603D02*
X10979706Y-11669698D01*
X10979706Y-11669698D02*
X10979706Y-11745888D01*
X10979706Y-11745888D02*
X10989229Y-11764936D01*
X10989229Y-11764936D02*
X10998753Y-11774460D01*
X10998753Y-11774460D02*
X11017801Y-11783984D01*
X11017801Y-11783984D02*
X11055896Y-11783984D01*
X11055896Y-11783984D02*
X11074944Y-11774460D01*
X11074944Y-11774460D02*
X11084468Y-11764936D01*
X11084468Y-11764936D02*
X11093991Y-11745888D01*
X11093991Y-11745888D02*
X11093991Y-11698269D01*
X11093991Y-11698269D02*
X11084468Y-11679222D01*
X11084468Y-11679222D02*
X11074944Y-11669698D01*
X11074944Y-11669698D02*
X11055896Y-11660174D01*
X11055896Y-11660174D02*
X11017801Y-11660174D01*
X11017801Y-11660174D02*
X10998753Y-11669698D01*
X10998753Y-11669698D02*
X10989229Y-11679222D01*
X10989229Y-11679222D02*
X10979706Y-11698269D01*
X11265420Y-11583984D02*
X11227325Y-11583984D01*
X11227325Y-11583984D02*
X11208277Y-11593508D01*
X11208277Y-11593508D02*
X11198753Y-11603031D01*
X11198753Y-11603031D02*
X11179706Y-11631603D01*
X11179706Y-11631603D02*
X11170182Y-11669698D01*
X11170182Y-11669698D02*
X11170182Y-11745888D01*
X11170182Y-11745888D02*
X11179706Y-11764936D01*
X11179706Y-11764936D02*
X11189229Y-11774460D01*
X11189229Y-11774460D02*
X11208277Y-11783984D01*
X11208277Y-11783984D02*
X11246372Y-11783984D01*
X11246372Y-11783984D02*
X11265420Y-11774460D01*
X11265420Y-11774460D02*
X11274944Y-11764936D01*
X11274944Y-11764936D02*
X11284467Y-11745888D01*
X11284467Y-11745888D02*
X11284467Y-11698269D01*
X11284467Y-11698269D02*
X11274944Y-11679222D01*
X11274944Y-11679222D02*
X11265420Y-11669698D01*
X11265420Y-11669698D02*
X11246372Y-11660174D01*
X11246372Y-11660174D02*
X11208277Y-11660174D01*
X11208277Y-11660174D02*
X11189229Y-11669698D01*
X11189229Y-11669698D02*
X11179706Y-11679222D01*
X11179706Y-11679222D02*
X11170182Y-11698269D01*
X11379706Y-11783984D02*
X11417801Y-11783984D01*
X11417801Y-11783984D02*
X11436848Y-11774460D01*
X11436848Y-11774460D02*
X11446372Y-11764936D01*
X11446372Y-11764936D02*
X11465420Y-11736365D01*
X11465420Y-11736365D02*
X11474944Y-11698269D01*
X11474944Y-11698269D02*
X11474944Y-11622079D01*
X11474944Y-11622079D02*
X11465420Y-11603031D01*
X11465420Y-11603031D02*
X11455896Y-11593508D01*
X11455896Y-11593508D02*
X11436848Y-11583984D01*
X11436848Y-11583984D02*
X11398753Y-11583984D01*
X11398753Y-11583984D02*
X11379706Y-11593508D01*
X11379706Y-11593508D02*
X11370182Y-11603031D01*
X11370182Y-11603031D02*
X11360658Y-11622079D01*
X11360658Y-11622079D02*
X11360658Y-11669698D01*
X11360658Y-11669698D02*
X11370182Y-11688746D01*
X11370182Y-11688746D02*
X11379706Y-11698269D01*
X11379706Y-11698269D02*
X11398753Y-11707793D01*
X11398753Y-11707793D02*
X11436848Y-11707793D01*
X11436848Y-11707793D02*
X11455896Y-11698269D01*
X11455896Y-11698269D02*
X11465420Y-11688746D01*
X11465420Y-11688746D02*
X11474944Y-11669698D01*
X11551134Y-11583984D02*
X11551134Y-11622079D01*
X11627325Y-11583984D02*
X11627325Y-11622079D01*
X11922563Y-11860174D02*
X11913039Y-11850650D01*
X11913039Y-11850650D02*
X11893991Y-11822079D01*
X11893991Y-11822079D02*
X11884468Y-11803031D01*
X11884468Y-11803031D02*
X11874944Y-11774460D01*
X11874944Y-11774460D02*
X11865420Y-11726841D01*
X11865420Y-11726841D02*
X11865420Y-11688746D01*
X11865420Y-11688746D02*
X11874944Y-11641127D01*
X11874944Y-11641127D02*
X11884468Y-11612555D01*
X11884468Y-11612555D02*
X11893991Y-11593508D01*
X11893991Y-11593508D02*
X11913039Y-11564936D01*
X11913039Y-11564936D02*
X11922563Y-11555412D01*
X12084468Y-11650650D02*
X12084468Y-11783984D01*
X12036848Y-11574460D02*
X11989229Y-11717317D01*
X11989229Y-11717317D02*
X12113039Y-11717317D01*
X12341610Y-11783984D02*
X12341610Y-11583984D01*
X12427325Y-11783984D02*
X12427325Y-11679222D01*
X12427325Y-11679222D02*
X12417801Y-11660174D01*
X12417801Y-11660174D02*
X12398753Y-11650650D01*
X12398753Y-11650650D02*
X12370182Y-11650650D01*
X12370182Y-11650650D02*
X12351134Y-11660174D01*
X12351134Y-11660174D02*
X12341610Y-11669698D01*
X12551134Y-11783984D02*
X12532087Y-11774460D01*
X12532087Y-11774460D02*
X12522563Y-11764936D01*
X12522563Y-11764936D02*
X12513039Y-11745888D01*
X12513039Y-11745888D02*
X12513039Y-11688746D01*
X12513039Y-11688746D02*
X12522563Y-11669698D01*
X12522563Y-11669698D02*
X12532087Y-11660174D01*
X12532087Y-11660174D02*
X12551134Y-11650650D01*
X12551134Y-11650650D02*
X12579706Y-11650650D01*
X12579706Y-11650650D02*
X12598753Y-11660174D01*
X12598753Y-11660174D02*
X12608277Y-11669698D01*
X12608277Y-11669698D02*
X12617801Y-11688746D01*
X12617801Y-11688746D02*
X12617801Y-11745888D01*
X12617801Y-11745888D02*
X12608277Y-11764936D01*
X12608277Y-11764936D02*
X12598753Y-11774460D01*
X12598753Y-11774460D02*
X12579706Y-11783984D01*
X12579706Y-11783984D02*
X12551134Y-11783984D01*
X12732087Y-11783984D02*
X12713039Y-11774460D01*
X12713039Y-11774460D02*
X12703515Y-11755412D01*
X12703515Y-11755412D02*
X12703515Y-11583984D01*
X12884468Y-11774460D02*
X12865420Y-11783984D01*
X12865420Y-11783984D02*
X12827325Y-11783984D01*
X12827325Y-11783984D02*
X12808277Y-11774460D01*
X12808277Y-11774460D02*
X12798753Y-11755412D01*
X12798753Y-11755412D02*
X12798753Y-11679222D01*
X12798753Y-11679222D02*
X12808277Y-11660174D01*
X12808277Y-11660174D02*
X12827325Y-11650650D01*
X12827325Y-11650650D02*
X12865420Y-11650650D01*
X12865420Y-11650650D02*
X12884468Y-11660174D01*
X12884468Y-11660174D02*
X12893991Y-11679222D01*
X12893991Y-11679222D02*
X12893991Y-11698269D01*
X12893991Y-11698269D02*
X12798753Y-11717317D01*
X12970182Y-11774460D02*
X12989230Y-11783984D01*
X12989230Y-11783984D02*
X13027325Y-11783984D01*
X13027325Y-11783984D02*
X13046372Y-11774460D01*
X13046372Y-11774460D02*
X13055896Y-11755412D01*
X13055896Y-11755412D02*
X13055896Y-11745888D01*
X13055896Y-11745888D02*
X13046372Y-11726841D01*
X13046372Y-11726841D02*
X13027325Y-11717317D01*
X13027325Y-11717317D02*
X12998753Y-11717317D01*
X12998753Y-11717317D02*
X12979706Y-11707793D01*
X12979706Y-11707793D02*
X12970182Y-11688746D01*
X12970182Y-11688746D02*
X12970182Y-11679222D01*
X12970182Y-11679222D02*
X12979706Y-11660174D01*
X12979706Y-11660174D02*
X12998753Y-11650650D01*
X12998753Y-11650650D02*
X13027325Y-11650650D01*
X13027325Y-11650650D02*
X13046372Y-11660174D01*
X13122563Y-11860174D02*
X13132087Y-11850650D01*
X13132087Y-11850650D02*
X13151134Y-11822079D01*
X13151134Y-11822079D02*
X13160658Y-11803031D01*
X13160658Y-11803031D02*
X13170182Y-11774460D01*
X13170182Y-11774460D02*
X13179706Y-11726841D01*
X13179706Y-11726841D02*
X13179706Y-11688746D01*
X13179706Y-11688746D02*
X13170182Y-11641127D01*
X13170182Y-11641127D02*
X13160658Y-11612555D01*
X13160658Y-11612555D02*
X13151134Y-11593508D01*
X13151134Y-11593508D02*
X13132087Y-11564936D01*
X13132087Y-11564936D02*
X13122563Y-11555412D01*
X13484468Y-11860174D02*
X13474944Y-11850650D01*
X13474944Y-11850650D02*
X13455896Y-11822079D01*
X13455896Y-11822079D02*
X13446372Y-11803031D01*
X13446372Y-11803031D02*
X13436849Y-11774460D01*
X13436849Y-11774460D02*
X13427325Y-11726841D01*
X13427325Y-11726841D02*
X13427325Y-11688746D01*
X13427325Y-11688746D02*
X13436849Y-11641127D01*
X13436849Y-11641127D02*
X13446372Y-11612555D01*
X13446372Y-11612555D02*
X13455896Y-11593508D01*
X13455896Y-11593508D02*
X13474944Y-11564936D01*
X13474944Y-11564936D02*
X13484468Y-11555412D01*
X13560658Y-11650650D02*
X13560658Y-11783984D01*
X13560658Y-11669698D02*
X13570182Y-11660174D01*
X13570182Y-11660174D02*
X13589230Y-11650650D01*
X13589230Y-11650650D02*
X13617801Y-11650650D01*
X13617801Y-11650650D02*
X13636849Y-11660174D01*
X13636849Y-11660174D02*
X13646372Y-11679222D01*
X13646372Y-11679222D02*
X13646372Y-11783984D01*
X13770182Y-11783984D02*
X13751134Y-11774460D01*
X13751134Y-11774460D02*
X13741611Y-11764936D01*
X13741611Y-11764936D02*
X13732087Y-11745888D01*
X13732087Y-11745888D02*
X13732087Y-11688746D01*
X13732087Y-11688746D02*
X13741611Y-11669698D01*
X13741611Y-11669698D02*
X13751134Y-11660174D01*
X13751134Y-11660174D02*
X13770182Y-11650650D01*
X13770182Y-11650650D02*
X13798753Y-11650650D01*
X13798753Y-11650650D02*
X13817801Y-11660174D01*
X13817801Y-11660174D02*
X13827325Y-11669698D01*
X13827325Y-11669698D02*
X13836849Y-11688746D01*
X13836849Y-11688746D02*
X13836849Y-11745888D01*
X13836849Y-11745888D02*
X13827325Y-11764936D01*
X13827325Y-11764936D02*
X13817801Y-11774460D01*
X13817801Y-11774460D02*
X13798753Y-11783984D01*
X13798753Y-11783984D02*
X13770182Y-11783984D01*
X13893992Y-11650650D02*
X13970182Y-11650650D01*
X13922563Y-11583984D02*
X13922563Y-11755412D01*
X13922563Y-11755412D02*
X13932087Y-11774460D01*
X13932087Y-11774460D02*
X13951134Y-11783984D01*
X13951134Y-11783984D02*
X13970182Y-11783984D01*
X14189230Y-11650650D02*
X14189230Y-11850650D01*
X14189230Y-11660174D02*
X14208277Y-11650650D01*
X14208277Y-11650650D02*
X14246373Y-11650650D01*
X14246373Y-11650650D02*
X14265420Y-11660174D01*
X14265420Y-11660174D02*
X14274944Y-11669698D01*
X14274944Y-11669698D02*
X14284468Y-11688746D01*
X14284468Y-11688746D02*
X14284468Y-11745888D01*
X14284468Y-11745888D02*
X14274944Y-11764936D01*
X14274944Y-11764936D02*
X14265420Y-11774460D01*
X14265420Y-11774460D02*
X14246373Y-11783984D01*
X14246373Y-11783984D02*
X14208277Y-11783984D01*
X14208277Y-11783984D02*
X14189230Y-11774460D01*
X14398753Y-11783984D02*
X14379706Y-11774460D01*
X14379706Y-11774460D02*
X14370182Y-11755412D01*
X14370182Y-11755412D02*
X14370182Y-11583984D01*
X14560658Y-11783984D02*
X14560658Y-11679222D01*
X14560658Y-11679222D02*
X14551134Y-11660174D01*
X14551134Y-11660174D02*
X14532087Y-11650650D01*
X14532087Y-11650650D02*
X14493992Y-11650650D01*
X14493992Y-11650650D02*
X14474944Y-11660174D01*
X14560658Y-11774460D02*
X14541611Y-11783984D01*
X14541611Y-11783984D02*
X14493992Y-11783984D01*
X14493992Y-11783984D02*
X14474944Y-11774460D01*
X14474944Y-11774460D02*
X14465420Y-11755412D01*
X14465420Y-11755412D02*
X14465420Y-11736365D01*
X14465420Y-11736365D02*
X14474944Y-11717317D01*
X14474944Y-11717317D02*
X14493992Y-11707793D01*
X14493992Y-11707793D02*
X14541611Y-11707793D01*
X14541611Y-11707793D02*
X14560658Y-11698269D01*
X14627325Y-11650650D02*
X14703515Y-11650650D01*
X14655896Y-11583984D02*
X14655896Y-11755412D01*
X14655896Y-11755412D02*
X14665420Y-11774460D01*
X14665420Y-11774460D02*
X14684468Y-11783984D01*
X14684468Y-11783984D02*
X14703515Y-11783984D01*
X14846373Y-11774460D02*
X14827325Y-11783984D01*
X14827325Y-11783984D02*
X14789230Y-11783984D01*
X14789230Y-11783984D02*
X14770182Y-11774460D01*
X14770182Y-11774460D02*
X14760658Y-11755412D01*
X14760658Y-11755412D02*
X14760658Y-11679222D01*
X14760658Y-11679222D02*
X14770182Y-11660174D01*
X14770182Y-11660174D02*
X14789230Y-11650650D01*
X14789230Y-11650650D02*
X14827325Y-11650650D01*
X14827325Y-11650650D02*
X14846373Y-11660174D01*
X14846373Y-11660174D02*
X14855896Y-11679222D01*
X14855896Y-11679222D02*
X14855896Y-11698269D01*
X14855896Y-11698269D02*
X14760658Y-11717317D01*
X15027325Y-11783984D02*
X15027325Y-11583984D01*
X15027325Y-11774460D02*
X15008277Y-11783984D01*
X15008277Y-11783984D02*
X14970182Y-11783984D01*
X14970182Y-11783984D02*
X14951134Y-11774460D01*
X14951134Y-11774460D02*
X14941611Y-11764936D01*
X14941611Y-11764936D02*
X14932087Y-11745888D01*
X14932087Y-11745888D02*
X14932087Y-11688746D01*
X14932087Y-11688746D02*
X14941611Y-11669698D01*
X14941611Y-11669698D02*
X14951134Y-11660174D01*
X14951134Y-11660174D02*
X14970182Y-11650650D01*
X14970182Y-11650650D02*
X15008277Y-11650650D01*
X15008277Y-11650650D02*
X15027325Y-11660174D01*
X15103515Y-11860174D02*
X15113039Y-11850650D01*
X15113039Y-11850650D02*
X15132087Y-11822079D01*
X15132087Y-11822079D02*
X15141611Y-11803031D01*
X15141611Y-11803031D02*
X15151134Y-11774460D01*
X15151134Y-11774460D02*
X15160658Y-11726841D01*
X15160658Y-11726841D02*
X15160658Y-11688746D01*
X15160658Y-11688746D02*
X15151134Y-11641127D01*
X15151134Y-11641127D02*
X15141611Y-11612555D01*
X15141611Y-11612555D02*
X15132087Y-11593508D01*
X15132087Y-11593508D02*
X15113039Y-11564936D01*
X15113039Y-11564936D02*
X15103515Y-11555412D01*
X8347500Y-11982500D02*
G75*
G02*
X8147500Y-11982500I-100000J0D01*
G01*
X8147500Y-11982500D02*
G75*
G02*
X8347500Y-11982500I100000J0D01*
G01*
X8598753Y-11893031D02*
X8608277Y-11883508D01*
X8608277Y-11883508D02*
X8627324Y-11873984D01*
X8627324Y-11873984D02*
X8674944Y-11873984D01*
X8674944Y-11873984D02*
X8693991Y-11883508D01*
X8693991Y-11883508D02*
X8703515Y-11893031D01*
X8703515Y-11893031D02*
X8713039Y-11912079D01*
X8713039Y-11912079D02*
X8713039Y-11931127D01*
X8713039Y-11931127D02*
X8703515Y-11959698D01*
X8703515Y-11959698D02*
X8589229Y-12073984D01*
X8589229Y-12073984D02*
X8713039Y-12073984D01*
X8798753Y-12054936D02*
X8808277Y-12064460D01*
X8808277Y-12064460D02*
X8798753Y-12073984D01*
X8798753Y-12073984D02*
X8789229Y-12064460D01*
X8789229Y-12064460D02*
X8798753Y-12054936D01*
X8798753Y-12054936D02*
X8798753Y-12073984D01*
X8903515Y-12073984D02*
X8941610Y-12073984D01*
X8941610Y-12073984D02*
X8960658Y-12064460D01*
X8960658Y-12064460D02*
X8970182Y-12054936D01*
X8970182Y-12054936D02*
X8989229Y-12026365D01*
X8989229Y-12026365D02*
X8998753Y-11988269D01*
X8998753Y-11988269D02*
X8998753Y-11912079D01*
X8998753Y-11912079D02*
X8989229Y-11893031D01*
X8989229Y-11893031D02*
X8979705Y-11883508D01*
X8979705Y-11883508D02*
X8960658Y-11873984D01*
X8960658Y-11873984D02*
X8922563Y-11873984D01*
X8922563Y-11873984D02*
X8903515Y-11883508D01*
X8903515Y-11883508D02*
X8893991Y-11893031D01*
X8893991Y-11893031D02*
X8884467Y-11912079D01*
X8884467Y-11912079D02*
X8884467Y-11959698D01*
X8884467Y-11959698D02*
X8893991Y-11978746D01*
X8893991Y-11978746D02*
X8903515Y-11988269D01*
X8903515Y-11988269D02*
X8922563Y-11997793D01*
X8922563Y-11997793D02*
X8960658Y-11997793D01*
X8960658Y-11997793D02*
X8979705Y-11988269D01*
X8979705Y-11988269D02*
X8989229Y-11978746D01*
X8989229Y-11978746D02*
X8998753Y-11959698D01*
X9122563Y-11873984D02*
X9141610Y-11873984D01*
X9141610Y-11873984D02*
X9160658Y-11883508D01*
X9160658Y-11883508D02*
X9170182Y-11893031D01*
X9170182Y-11893031D02*
X9179705Y-11912079D01*
X9179705Y-11912079D02*
X9189229Y-11950174D01*
X9189229Y-11950174D02*
X9189229Y-11997793D01*
X9189229Y-11997793D02*
X9179705Y-12035888D01*
X9179705Y-12035888D02*
X9170182Y-12054936D01*
X9170182Y-12054936D02*
X9160658Y-12064460D01*
X9160658Y-12064460D02*
X9141610Y-12073984D01*
X9141610Y-12073984D02*
X9122563Y-12073984D01*
X9122563Y-12073984D02*
X9103515Y-12064460D01*
X9103515Y-12064460D02*
X9093991Y-12054936D01*
X9093991Y-12054936D02*
X9084467Y-12035888D01*
X9084467Y-12035888D02*
X9074944Y-11997793D01*
X9074944Y-11997793D02*
X9074944Y-11950174D01*
X9074944Y-11950174D02*
X9084467Y-11912079D01*
X9084467Y-11912079D02*
X9093991Y-11893031D01*
X9093991Y-11893031D02*
X9103515Y-11883508D01*
X9103515Y-11883508D02*
X9122563Y-11873984D01*
X9313039Y-11873984D02*
X9332086Y-11873984D01*
X9332086Y-11873984D02*
X9351134Y-11883508D01*
X9351134Y-11883508D02*
X9360658Y-11893031D01*
X9360658Y-11893031D02*
X9370182Y-11912079D01*
X9370182Y-11912079D02*
X9379705Y-11950174D01*
X9379705Y-11950174D02*
X9379705Y-11997793D01*
X9379705Y-11997793D02*
X9370182Y-12035888D01*
X9370182Y-12035888D02*
X9360658Y-12054936D01*
X9360658Y-12054936D02*
X9351134Y-12064460D01*
X9351134Y-12064460D02*
X9332086Y-12073984D01*
X9332086Y-12073984D02*
X9313039Y-12073984D01*
X9313039Y-12073984D02*
X9293991Y-12064460D01*
X9293991Y-12064460D02*
X9284467Y-12054936D01*
X9284467Y-12054936D02*
X9274944Y-12035888D01*
X9274944Y-12035888D02*
X9265420Y-11997793D01*
X9265420Y-11997793D02*
X9265420Y-11950174D01*
X9265420Y-11950174D02*
X9274944Y-11912079D01*
X9274944Y-11912079D02*
X9284467Y-11893031D01*
X9284467Y-11893031D02*
X9293991Y-11883508D01*
X9293991Y-11883508D02*
X9313039Y-11873984D01*
X9465420Y-12073984D02*
X9465420Y-11940650D01*
X9465420Y-11959698D02*
X9474944Y-11950174D01*
X9474944Y-11950174D02*
X9493991Y-11940650D01*
X9493991Y-11940650D02*
X9522563Y-11940650D01*
X9522563Y-11940650D02*
X9541610Y-11950174D01*
X9541610Y-11950174D02*
X9551134Y-11969222D01*
X9551134Y-11969222D02*
X9551134Y-12073984D01*
X9551134Y-11969222D02*
X9560658Y-11950174D01*
X9560658Y-11950174D02*
X9579705Y-11940650D01*
X9579705Y-11940650D02*
X9608277Y-11940650D01*
X9608277Y-11940650D02*
X9627325Y-11950174D01*
X9627325Y-11950174D02*
X9636848Y-11969222D01*
X9636848Y-11969222D02*
X9636848Y-12073984D01*
X9732086Y-12073984D02*
X9732086Y-11940650D01*
X9732086Y-11959698D02*
X9741610Y-11950174D01*
X9741610Y-11950174D02*
X9760658Y-11940650D01*
X9760658Y-11940650D02*
X9789229Y-11940650D01*
X9789229Y-11940650D02*
X9808277Y-11950174D01*
X9808277Y-11950174D02*
X9817801Y-11969222D01*
X9817801Y-11969222D02*
X9817801Y-12073984D01*
X9817801Y-11969222D02*
X9827325Y-11950174D01*
X9827325Y-11950174D02*
X9846372Y-11940650D01*
X9846372Y-11940650D02*
X9874944Y-11940650D01*
X9874944Y-11940650D02*
X9893991Y-11950174D01*
X9893991Y-11950174D02*
X9903515Y-11969222D01*
X9903515Y-11969222D02*
X9903515Y-12073984D01*
X10293991Y-11864460D02*
X10122563Y-12121603D01*
X10551134Y-11873984D02*
X10570182Y-11873984D01*
X10570182Y-11873984D02*
X10589229Y-11883508D01*
X10589229Y-11883508D02*
X10598753Y-11893031D01*
X10598753Y-11893031D02*
X10608277Y-11912079D01*
X10608277Y-11912079D02*
X10617801Y-11950174D01*
X10617801Y-11950174D02*
X10617801Y-11997793D01*
X10617801Y-11997793D02*
X10608277Y-12035888D01*
X10608277Y-12035888D02*
X10598753Y-12054936D01*
X10598753Y-12054936D02*
X10589229Y-12064460D01*
X10589229Y-12064460D02*
X10570182Y-12073984D01*
X10570182Y-12073984D02*
X10551134Y-12073984D01*
X10551134Y-12073984D02*
X10532087Y-12064460D01*
X10532087Y-12064460D02*
X10522563Y-12054936D01*
X10522563Y-12054936D02*
X10513039Y-12035888D01*
X10513039Y-12035888D02*
X10503515Y-11997793D01*
X10503515Y-11997793D02*
X10503515Y-11950174D01*
X10503515Y-11950174D02*
X10513039Y-11912079D01*
X10513039Y-11912079D02*
X10522563Y-11893031D01*
X10522563Y-11893031D02*
X10532087Y-11883508D01*
X10532087Y-11883508D02*
X10551134Y-11873984D01*
X10703515Y-12054936D02*
X10713039Y-12064460D01*
X10713039Y-12064460D02*
X10703515Y-12073984D01*
X10703515Y-12073984D02*
X10693991Y-12064460D01*
X10693991Y-12064460D02*
X10703515Y-12054936D01*
X10703515Y-12054936D02*
X10703515Y-12073984D01*
X10903515Y-12073984D02*
X10789229Y-12073984D01*
X10846372Y-12073984D02*
X10846372Y-11873984D01*
X10846372Y-11873984D02*
X10827325Y-11902555D01*
X10827325Y-11902555D02*
X10808277Y-11921603D01*
X10808277Y-11921603D02*
X10789229Y-11931127D01*
X11093991Y-12073984D02*
X10979706Y-12073984D01*
X11036848Y-12073984D02*
X11036848Y-11873984D01*
X11036848Y-11873984D02*
X11017801Y-11902555D01*
X11017801Y-11902555D02*
X10998753Y-11921603D01*
X10998753Y-11921603D02*
X10979706Y-11931127D01*
X11265420Y-11940650D02*
X11265420Y-12073984D01*
X11217801Y-11864460D02*
X11170182Y-12007317D01*
X11170182Y-12007317D02*
X11293991Y-12007317D01*
X11360658Y-11893031D02*
X11370182Y-11883508D01*
X11370182Y-11883508D02*
X11389229Y-11873984D01*
X11389229Y-11873984D02*
X11436848Y-11873984D01*
X11436848Y-11873984D02*
X11455896Y-11883508D01*
X11455896Y-11883508D02*
X11465420Y-11893031D01*
X11465420Y-11893031D02*
X11474944Y-11912079D01*
X11474944Y-11912079D02*
X11474944Y-11931127D01*
X11474944Y-11931127D02*
X11465420Y-11959698D01*
X11465420Y-11959698D02*
X11351134Y-12073984D01*
X11351134Y-12073984D02*
X11474944Y-12073984D01*
X11551134Y-11873984D02*
X11551134Y-11912079D01*
X11627325Y-11873984D02*
X11627325Y-11912079D01*
X11922563Y-12150174D02*
X11913039Y-12140650D01*
X11913039Y-12140650D02*
X11893991Y-12112079D01*
X11893991Y-12112079D02*
X11884468Y-12093031D01*
X11884468Y-12093031D02*
X11874944Y-12064460D01*
X11874944Y-12064460D02*
X11865420Y-12016841D01*
X11865420Y-12016841D02*
X11865420Y-11978746D01*
X11865420Y-11978746D02*
X11874944Y-11931127D01*
X11874944Y-11931127D02*
X11884468Y-11902555D01*
X11884468Y-11902555D02*
X11893991Y-11883508D01*
X11893991Y-11883508D02*
X11913039Y-11854936D01*
X11913039Y-11854936D02*
X11922563Y-11845412D01*
X12036848Y-11873984D02*
X12055896Y-11873984D01*
X12055896Y-11873984D02*
X12074944Y-11883508D01*
X12074944Y-11883508D02*
X12084468Y-11893031D01*
X12084468Y-11893031D02*
X12093991Y-11912079D01*
X12093991Y-11912079D02*
X12103515Y-11950174D01*
X12103515Y-11950174D02*
X12103515Y-11997793D01*
X12103515Y-11997793D02*
X12093991Y-12035888D01*
X12093991Y-12035888D02*
X12084468Y-12054936D01*
X12084468Y-12054936D02*
X12074944Y-12064460D01*
X12074944Y-12064460D02*
X12055896Y-12073984D01*
X12055896Y-12073984D02*
X12036848Y-12073984D01*
X12036848Y-12073984D02*
X12017801Y-12064460D01*
X12017801Y-12064460D02*
X12008277Y-12054936D01*
X12008277Y-12054936D02*
X11998753Y-12035888D01*
X11998753Y-12035888D02*
X11989229Y-11997793D01*
X11989229Y-11997793D02*
X11989229Y-11950174D01*
X11989229Y-11950174D02*
X11998753Y-11912079D01*
X11998753Y-11912079D02*
X12008277Y-11893031D01*
X12008277Y-11893031D02*
X12017801Y-11883508D01*
X12017801Y-11883508D02*
X12036848Y-11873984D01*
X12341610Y-12073984D02*
X12341610Y-11873984D01*
X12427325Y-12073984D02*
X12427325Y-11969222D01*
X12427325Y-11969222D02*
X12417801Y-11950174D01*
X12417801Y-11950174D02*
X12398753Y-11940650D01*
X12398753Y-11940650D02*
X12370182Y-11940650D01*
X12370182Y-11940650D02*
X12351134Y-11950174D01*
X12351134Y-11950174D02*
X12341610Y-11959698D01*
X12551134Y-12073984D02*
X12532087Y-12064460D01*
X12532087Y-12064460D02*
X12522563Y-12054936D01*
X12522563Y-12054936D02*
X12513039Y-12035888D01*
X12513039Y-12035888D02*
X12513039Y-11978746D01*
X12513039Y-11978746D02*
X12522563Y-11959698D01*
X12522563Y-11959698D02*
X12532087Y-11950174D01*
X12532087Y-11950174D02*
X12551134Y-11940650D01*
X12551134Y-11940650D02*
X12579706Y-11940650D01*
X12579706Y-11940650D02*
X12598753Y-11950174D01*
X12598753Y-11950174D02*
X12608277Y-11959698D01*
X12608277Y-11959698D02*
X12617801Y-11978746D01*
X12617801Y-11978746D02*
X12617801Y-12035888D01*
X12617801Y-12035888D02*
X12608277Y-12054936D01*
X12608277Y-12054936D02*
X12598753Y-12064460D01*
X12598753Y-12064460D02*
X12579706Y-12073984D01*
X12579706Y-12073984D02*
X12551134Y-12073984D01*
X12732087Y-12073984D02*
X12713039Y-12064460D01*
X12713039Y-12064460D02*
X12703515Y-12045412D01*
X12703515Y-12045412D02*
X12703515Y-11873984D01*
X12884468Y-12064460D02*
X12865420Y-12073984D01*
X12865420Y-12073984D02*
X12827325Y-12073984D01*
X12827325Y-12073984D02*
X12808277Y-12064460D01*
X12808277Y-12064460D02*
X12798753Y-12045412D01*
X12798753Y-12045412D02*
X12798753Y-11969222D01*
X12798753Y-11969222D02*
X12808277Y-11950174D01*
X12808277Y-11950174D02*
X12827325Y-11940650D01*
X12827325Y-11940650D02*
X12865420Y-11940650D01*
X12865420Y-11940650D02*
X12884468Y-11950174D01*
X12884468Y-11950174D02*
X12893991Y-11969222D01*
X12893991Y-11969222D02*
X12893991Y-11988269D01*
X12893991Y-11988269D02*
X12798753Y-12007317D01*
X12970182Y-12064460D02*
X12989230Y-12073984D01*
X12989230Y-12073984D02*
X13027325Y-12073984D01*
X13027325Y-12073984D02*
X13046372Y-12064460D01*
X13046372Y-12064460D02*
X13055896Y-12045412D01*
X13055896Y-12045412D02*
X13055896Y-12035888D01*
X13055896Y-12035888D02*
X13046372Y-12016841D01*
X13046372Y-12016841D02*
X13027325Y-12007317D01*
X13027325Y-12007317D02*
X12998753Y-12007317D01*
X12998753Y-12007317D02*
X12979706Y-11997793D01*
X12979706Y-11997793D02*
X12970182Y-11978746D01*
X12970182Y-11978746D02*
X12970182Y-11969222D01*
X12970182Y-11969222D02*
X12979706Y-11950174D01*
X12979706Y-11950174D02*
X12998753Y-11940650D01*
X12998753Y-11940650D02*
X13027325Y-11940650D01*
X13027325Y-11940650D02*
X13046372Y-11950174D01*
X13293992Y-11997793D02*
X13446373Y-11997793D01*
X13370182Y-12073984D02*
X13370182Y-11921603D01*
X13779706Y-11940650D02*
X13779706Y-12073984D01*
X13732087Y-11864460D02*
X13684468Y-12007317D01*
X13684468Y-12007317D02*
X13808277Y-12007317D01*
X14027325Y-12064460D02*
X14046373Y-12073984D01*
X14046373Y-12073984D02*
X14084468Y-12073984D01*
X14084468Y-12073984D02*
X14103515Y-12064460D01*
X14103515Y-12064460D02*
X14113039Y-12045412D01*
X14113039Y-12045412D02*
X14113039Y-12035888D01*
X14113039Y-12035888D02*
X14103515Y-12016841D01*
X14103515Y-12016841D02*
X14084468Y-12007317D01*
X14084468Y-12007317D02*
X14055896Y-12007317D01*
X14055896Y-12007317D02*
X14036849Y-11997793D01*
X14036849Y-11997793D02*
X14027325Y-11978746D01*
X14027325Y-11978746D02*
X14027325Y-11969222D01*
X14027325Y-11969222D02*
X14036849Y-11950174D01*
X14036849Y-11950174D02*
X14055896Y-11940650D01*
X14055896Y-11940650D02*
X14084468Y-11940650D01*
X14084468Y-11940650D02*
X14103515Y-11950174D01*
X14227325Y-12073984D02*
X14208277Y-12064460D01*
X14208277Y-12064460D02*
X14198754Y-12045412D01*
X14198754Y-12045412D02*
X14198754Y-11873984D01*
X14332087Y-12073984D02*
X14313039Y-12064460D01*
X14313039Y-12064460D02*
X14303515Y-12054936D01*
X14303515Y-12054936D02*
X14293992Y-12035888D01*
X14293992Y-12035888D02*
X14293992Y-11978746D01*
X14293992Y-11978746D02*
X14303515Y-11959698D01*
X14303515Y-11959698D02*
X14313039Y-11950174D01*
X14313039Y-11950174D02*
X14332087Y-11940650D01*
X14332087Y-11940650D02*
X14360658Y-11940650D01*
X14360658Y-11940650D02*
X14379706Y-11950174D01*
X14379706Y-11950174D02*
X14389230Y-11959698D01*
X14389230Y-11959698D02*
X14398754Y-11978746D01*
X14398754Y-11978746D02*
X14398754Y-12035888D01*
X14398754Y-12035888D02*
X14389230Y-12054936D01*
X14389230Y-12054936D02*
X14379706Y-12064460D01*
X14379706Y-12064460D02*
X14360658Y-12073984D01*
X14360658Y-12073984D02*
X14332087Y-12073984D01*
X14455896Y-11940650D02*
X14532087Y-11940650D01*
X14484468Y-11873984D02*
X14484468Y-12045412D01*
X14484468Y-12045412D02*
X14493992Y-12064460D01*
X14493992Y-12064460D02*
X14513039Y-12073984D01*
X14513039Y-12073984D02*
X14532087Y-12073984D01*
X14589230Y-12064460D02*
X14608277Y-12073984D01*
X14608277Y-12073984D02*
X14646373Y-12073984D01*
X14646373Y-12073984D02*
X14665420Y-12064460D01*
X14665420Y-12064460D02*
X14674944Y-12045412D01*
X14674944Y-12045412D02*
X14674944Y-12035888D01*
X14674944Y-12035888D02*
X14665420Y-12016841D01*
X14665420Y-12016841D02*
X14646373Y-12007317D01*
X14646373Y-12007317D02*
X14617801Y-12007317D01*
X14617801Y-12007317D02*
X14598754Y-11997793D01*
X14598754Y-11997793D02*
X14589230Y-11978746D01*
X14589230Y-11978746D02*
X14589230Y-11969222D01*
X14589230Y-11969222D02*
X14598754Y-11950174D01*
X14598754Y-11950174D02*
X14617801Y-11940650D01*
X14617801Y-11940650D02*
X14646373Y-11940650D01*
X14646373Y-11940650D02*
X14665420Y-11950174D01*
X14741611Y-12150174D02*
X14751135Y-12140650D01*
X14751135Y-12140650D02*
X14770182Y-12112079D01*
X14770182Y-12112079D02*
X14779706Y-12093031D01*
X14779706Y-12093031D02*
X14789230Y-12064460D01*
X14789230Y-12064460D02*
X14798754Y-12016841D01*
X14798754Y-12016841D02*
X14798754Y-11978746D01*
X14798754Y-11978746D02*
X14789230Y-11931127D01*
X14789230Y-11931127D02*
X14779706Y-11902555D01*
X14779706Y-11902555D02*
X14770182Y-11883508D01*
X14770182Y-11883508D02*
X14751135Y-11854936D01*
X14751135Y-11854936D02*
X14741611Y-11845412D01*
X15103516Y-12150174D02*
X15093992Y-12140650D01*
X15093992Y-12140650D02*
X15074944Y-12112079D01*
X15074944Y-12112079D02*
X15065420Y-12093031D01*
X15065420Y-12093031D02*
X15055896Y-12064460D01*
X15055896Y-12064460D02*
X15046373Y-12016841D01*
X15046373Y-12016841D02*
X15046373Y-11978746D01*
X15046373Y-11978746D02*
X15055896Y-11931127D01*
X15055896Y-11931127D02*
X15065420Y-11902555D01*
X15065420Y-11902555D02*
X15074944Y-11883508D01*
X15074944Y-11883508D02*
X15093992Y-11854936D01*
X15093992Y-11854936D02*
X15103516Y-11845412D01*
X15179706Y-11940650D02*
X15179706Y-12073984D01*
X15179706Y-11959698D02*
X15189230Y-11950174D01*
X15189230Y-11950174D02*
X15208277Y-11940650D01*
X15208277Y-11940650D02*
X15236849Y-11940650D01*
X15236849Y-11940650D02*
X15255896Y-11950174D01*
X15255896Y-11950174D02*
X15265420Y-11969222D01*
X15265420Y-11969222D02*
X15265420Y-12073984D01*
X15389230Y-12073984D02*
X15370182Y-12064460D01*
X15370182Y-12064460D02*
X15360658Y-12054936D01*
X15360658Y-12054936D02*
X15351135Y-12035888D01*
X15351135Y-12035888D02*
X15351135Y-11978746D01*
X15351135Y-11978746D02*
X15360658Y-11959698D01*
X15360658Y-11959698D02*
X15370182Y-11950174D01*
X15370182Y-11950174D02*
X15389230Y-11940650D01*
X15389230Y-11940650D02*
X15417801Y-11940650D01*
X15417801Y-11940650D02*
X15436849Y-11950174D01*
X15436849Y-11950174D02*
X15446373Y-11959698D01*
X15446373Y-11959698D02*
X15455896Y-11978746D01*
X15455896Y-11978746D02*
X15455896Y-12035888D01*
X15455896Y-12035888D02*
X15446373Y-12054936D01*
X15446373Y-12054936D02*
X15436849Y-12064460D01*
X15436849Y-12064460D02*
X15417801Y-12073984D01*
X15417801Y-12073984D02*
X15389230Y-12073984D01*
X15513039Y-11940650D02*
X15589230Y-11940650D01*
X15541611Y-11873984D02*
X15541611Y-12045412D01*
X15541611Y-12045412D02*
X15551135Y-12064460D01*
X15551135Y-12064460D02*
X15570182Y-12073984D01*
X15570182Y-12073984D02*
X15589230Y-12073984D01*
X15808277Y-11940650D02*
X15808277Y-12140650D01*
X15808277Y-11950174D02*
X15827325Y-11940650D01*
X15827325Y-11940650D02*
X15865420Y-11940650D01*
X15865420Y-11940650D02*
X15884468Y-11950174D01*
X15884468Y-11950174D02*
X15893992Y-11959698D01*
X15893992Y-11959698D02*
X15903516Y-11978746D01*
X15903516Y-11978746D02*
X15903516Y-12035888D01*
X15903516Y-12035888D02*
X15893992Y-12054936D01*
X15893992Y-12054936D02*
X15884468Y-12064460D01*
X15884468Y-12064460D02*
X15865420Y-12073984D01*
X15865420Y-12073984D02*
X15827325Y-12073984D01*
X15827325Y-12073984D02*
X15808277Y-12064460D01*
X16017801Y-12073984D02*
X15998754Y-12064460D01*
X15998754Y-12064460D02*
X15989230Y-12045412D01*
X15989230Y-12045412D02*
X15989230Y-11873984D01*
X16179706Y-12073984D02*
X16179706Y-11969222D01*
X16179706Y-11969222D02*
X16170182Y-11950174D01*
X16170182Y-11950174D02*
X16151135Y-11940650D01*
X16151135Y-11940650D02*
X16113039Y-11940650D01*
X16113039Y-11940650D02*
X16093992Y-11950174D01*
X16179706Y-12064460D02*
X16160658Y-12073984D01*
X16160658Y-12073984D02*
X16113039Y-12073984D01*
X16113039Y-12073984D02*
X16093992Y-12064460D01*
X16093992Y-12064460D02*
X16084468Y-12045412D01*
X16084468Y-12045412D02*
X16084468Y-12026365D01*
X16084468Y-12026365D02*
X16093992Y-12007317D01*
X16093992Y-12007317D02*
X16113039Y-11997793D01*
X16113039Y-11997793D02*
X16160658Y-11997793D01*
X16160658Y-11997793D02*
X16179706Y-11988269D01*
X16246373Y-11940650D02*
X16322563Y-11940650D01*
X16274944Y-11873984D02*
X16274944Y-12045412D01*
X16274944Y-12045412D02*
X16284468Y-12064460D01*
X16284468Y-12064460D02*
X16303516Y-12073984D01*
X16303516Y-12073984D02*
X16322563Y-12073984D01*
X16465420Y-12064460D02*
X16446373Y-12073984D01*
X16446373Y-12073984D02*
X16408277Y-12073984D01*
X16408277Y-12073984D02*
X16389230Y-12064460D01*
X16389230Y-12064460D02*
X16379706Y-12045412D01*
X16379706Y-12045412D02*
X16379706Y-11969222D01*
X16379706Y-11969222D02*
X16389230Y-11950174D01*
X16389230Y-11950174D02*
X16408277Y-11940650D01*
X16408277Y-11940650D02*
X16446373Y-11940650D01*
X16446373Y-11940650D02*
X16465420Y-11950174D01*
X16465420Y-11950174D02*
X16474944Y-11969222D01*
X16474944Y-11969222D02*
X16474944Y-11988269D01*
X16474944Y-11988269D02*
X16379706Y-12007317D01*
X16646373Y-12073984D02*
X16646373Y-11873984D01*
X16646373Y-12064460D02*
X16627325Y-12073984D01*
X16627325Y-12073984D02*
X16589230Y-12073984D01*
X16589230Y-12073984D02*
X16570182Y-12064460D01*
X16570182Y-12064460D02*
X16560658Y-12054936D01*
X16560658Y-12054936D02*
X16551135Y-12035888D01*
X16551135Y-12035888D02*
X16551135Y-11978746D01*
X16551135Y-11978746D02*
X16560658Y-11959698D01*
X16560658Y-11959698D02*
X16570182Y-11950174D01*
X16570182Y-11950174D02*
X16589230Y-11940650D01*
X16589230Y-11940650D02*
X16627325Y-11940650D01*
X16627325Y-11940650D02*
X16646373Y-11950174D01*
X16722563Y-12150174D02*
X16732087Y-12140650D01*
X16732087Y-12140650D02*
X16751135Y-12112079D01*
X16751135Y-12112079D02*
X16760658Y-12093031D01*
X16760658Y-12093031D02*
X16770182Y-12064460D01*
X16770182Y-12064460D02*
X16779706Y-12016841D01*
X16779706Y-12016841D02*
X16779706Y-11978746D01*
X16779706Y-11978746D02*
X16770182Y-11931127D01*
X16770182Y-11931127D02*
X16760658Y-11902555D01*
X16760658Y-11902555D02*
X16751135Y-11883508D01*
X16751135Y-11883508D02*
X16732087Y-11854936D01*
X16732087Y-11854936D02*
X16722563Y-11845412D01*
X8247500Y-12202500D02*
X8247500Y-12402500D01*
X8147500Y-12302500D02*
X8347500Y-12302500D01*
X8693991Y-12260650D02*
X8693991Y-12393984D01*
X8646372Y-12184460D02*
X8598753Y-12327317D01*
X8598753Y-12327317D02*
X8722563Y-12327317D01*
X8798753Y-12374936D02*
X8808277Y-12384460D01*
X8808277Y-12384460D02*
X8798753Y-12393984D01*
X8798753Y-12393984D02*
X8789229Y-12384460D01*
X8789229Y-12384460D02*
X8798753Y-12374936D01*
X8798753Y-12374936D02*
X8798753Y-12393984D01*
X8932086Y-12193984D02*
X8951134Y-12193984D01*
X8951134Y-12193984D02*
X8970182Y-12203508D01*
X8970182Y-12203508D02*
X8979705Y-12213031D01*
X8979705Y-12213031D02*
X8989229Y-12232079D01*
X8989229Y-12232079D02*
X8998753Y-12270174D01*
X8998753Y-12270174D02*
X8998753Y-12317793D01*
X8998753Y-12317793D02*
X8989229Y-12355888D01*
X8989229Y-12355888D02*
X8979705Y-12374936D01*
X8979705Y-12374936D02*
X8970182Y-12384460D01*
X8970182Y-12384460D02*
X8951134Y-12393984D01*
X8951134Y-12393984D02*
X8932086Y-12393984D01*
X8932086Y-12393984D02*
X8913039Y-12384460D01*
X8913039Y-12384460D02*
X8903515Y-12374936D01*
X8903515Y-12374936D02*
X8893991Y-12355888D01*
X8893991Y-12355888D02*
X8884467Y-12317793D01*
X8884467Y-12317793D02*
X8884467Y-12270174D01*
X8884467Y-12270174D02*
X8893991Y-12232079D01*
X8893991Y-12232079D02*
X8903515Y-12213031D01*
X8903515Y-12213031D02*
X8913039Y-12203508D01*
X8913039Y-12203508D02*
X8932086Y-12193984D01*
X9122563Y-12193984D02*
X9141610Y-12193984D01*
X9141610Y-12193984D02*
X9160658Y-12203508D01*
X9160658Y-12203508D02*
X9170182Y-12213031D01*
X9170182Y-12213031D02*
X9179705Y-12232079D01*
X9179705Y-12232079D02*
X9189229Y-12270174D01*
X9189229Y-12270174D02*
X9189229Y-12317793D01*
X9189229Y-12317793D02*
X9179705Y-12355888D01*
X9179705Y-12355888D02*
X9170182Y-12374936D01*
X9170182Y-12374936D02*
X9160658Y-12384460D01*
X9160658Y-12384460D02*
X9141610Y-12393984D01*
X9141610Y-12393984D02*
X9122563Y-12393984D01*
X9122563Y-12393984D02*
X9103515Y-12384460D01*
X9103515Y-12384460D02*
X9093991Y-12374936D01*
X9093991Y-12374936D02*
X9084467Y-12355888D01*
X9084467Y-12355888D02*
X9074944Y-12317793D01*
X9074944Y-12317793D02*
X9074944Y-12270174D01*
X9074944Y-12270174D02*
X9084467Y-12232079D01*
X9084467Y-12232079D02*
X9093991Y-12213031D01*
X9093991Y-12213031D02*
X9103515Y-12203508D01*
X9103515Y-12203508D02*
X9122563Y-12193984D01*
X9313039Y-12193984D02*
X9332086Y-12193984D01*
X9332086Y-12193984D02*
X9351134Y-12203508D01*
X9351134Y-12203508D02*
X9360658Y-12213031D01*
X9360658Y-12213031D02*
X9370182Y-12232079D01*
X9370182Y-12232079D02*
X9379705Y-12270174D01*
X9379705Y-12270174D02*
X9379705Y-12317793D01*
X9379705Y-12317793D02*
X9370182Y-12355888D01*
X9370182Y-12355888D02*
X9360658Y-12374936D01*
X9360658Y-12374936D02*
X9351134Y-12384460D01*
X9351134Y-12384460D02*
X9332086Y-12393984D01*
X9332086Y-12393984D02*
X9313039Y-12393984D01*
X9313039Y-12393984D02*
X9293991Y-12384460D01*
X9293991Y-12384460D02*
X9284467Y-12374936D01*
X9284467Y-12374936D02*
X9274944Y-12355888D01*
X9274944Y-12355888D02*
X9265420Y-12317793D01*
X9265420Y-12317793D02*
X9265420Y-12270174D01*
X9265420Y-12270174D02*
X9274944Y-12232079D01*
X9274944Y-12232079D02*
X9284467Y-12213031D01*
X9284467Y-12213031D02*
X9293991Y-12203508D01*
X9293991Y-12203508D02*
X9313039Y-12193984D01*
X9465420Y-12393984D02*
X9465420Y-12260650D01*
X9465420Y-12279698D02*
X9474944Y-12270174D01*
X9474944Y-12270174D02*
X9493991Y-12260650D01*
X9493991Y-12260650D02*
X9522563Y-12260650D01*
X9522563Y-12260650D02*
X9541610Y-12270174D01*
X9541610Y-12270174D02*
X9551134Y-12289222D01*
X9551134Y-12289222D02*
X9551134Y-12393984D01*
X9551134Y-12289222D02*
X9560658Y-12270174D01*
X9560658Y-12270174D02*
X9579705Y-12260650D01*
X9579705Y-12260650D02*
X9608277Y-12260650D01*
X9608277Y-12260650D02*
X9627325Y-12270174D01*
X9627325Y-12270174D02*
X9636848Y-12289222D01*
X9636848Y-12289222D02*
X9636848Y-12393984D01*
X9732086Y-12393984D02*
X9732086Y-12260650D01*
X9732086Y-12279698D02*
X9741610Y-12270174D01*
X9741610Y-12270174D02*
X9760658Y-12260650D01*
X9760658Y-12260650D02*
X9789229Y-12260650D01*
X9789229Y-12260650D02*
X9808277Y-12270174D01*
X9808277Y-12270174D02*
X9817801Y-12289222D01*
X9817801Y-12289222D02*
X9817801Y-12393984D01*
X9817801Y-12289222D02*
X9827325Y-12270174D01*
X9827325Y-12270174D02*
X9846372Y-12260650D01*
X9846372Y-12260650D02*
X9874944Y-12260650D01*
X9874944Y-12260650D02*
X9893991Y-12270174D01*
X9893991Y-12270174D02*
X9903515Y-12289222D01*
X9903515Y-12289222D02*
X9903515Y-12393984D01*
X10293991Y-12184460D02*
X10122563Y-12441603D01*
X10551134Y-12193984D02*
X10570182Y-12193984D01*
X10570182Y-12193984D02*
X10589229Y-12203508D01*
X10589229Y-12203508D02*
X10598753Y-12213031D01*
X10598753Y-12213031D02*
X10608277Y-12232079D01*
X10608277Y-12232079D02*
X10617801Y-12270174D01*
X10617801Y-12270174D02*
X10617801Y-12317793D01*
X10617801Y-12317793D02*
X10608277Y-12355888D01*
X10608277Y-12355888D02*
X10598753Y-12374936D01*
X10598753Y-12374936D02*
X10589229Y-12384460D01*
X10589229Y-12384460D02*
X10570182Y-12393984D01*
X10570182Y-12393984D02*
X10551134Y-12393984D01*
X10551134Y-12393984D02*
X10532087Y-12384460D01*
X10532087Y-12384460D02*
X10522563Y-12374936D01*
X10522563Y-12374936D02*
X10513039Y-12355888D01*
X10513039Y-12355888D02*
X10503515Y-12317793D01*
X10503515Y-12317793D02*
X10503515Y-12270174D01*
X10503515Y-12270174D02*
X10513039Y-12232079D01*
X10513039Y-12232079D02*
X10522563Y-12213031D01*
X10522563Y-12213031D02*
X10532087Y-12203508D01*
X10532087Y-12203508D02*
X10551134Y-12193984D01*
X10703515Y-12374936D02*
X10713039Y-12384460D01*
X10713039Y-12384460D02*
X10703515Y-12393984D01*
X10703515Y-12393984D02*
X10693991Y-12384460D01*
X10693991Y-12384460D02*
X10703515Y-12374936D01*
X10703515Y-12374936D02*
X10703515Y-12393984D01*
X10903515Y-12393984D02*
X10789229Y-12393984D01*
X10846372Y-12393984D02*
X10846372Y-12193984D01*
X10846372Y-12193984D02*
X10827325Y-12222555D01*
X10827325Y-12222555D02*
X10808277Y-12241603D01*
X10808277Y-12241603D02*
X10789229Y-12251127D01*
X11084468Y-12193984D02*
X10989229Y-12193984D01*
X10989229Y-12193984D02*
X10979706Y-12289222D01*
X10979706Y-12289222D02*
X10989229Y-12279698D01*
X10989229Y-12279698D02*
X11008277Y-12270174D01*
X11008277Y-12270174D02*
X11055896Y-12270174D01*
X11055896Y-12270174D02*
X11074944Y-12279698D01*
X11074944Y-12279698D02*
X11084468Y-12289222D01*
X11084468Y-12289222D02*
X11093991Y-12308269D01*
X11093991Y-12308269D02*
X11093991Y-12355888D01*
X11093991Y-12355888D02*
X11084468Y-12374936D01*
X11084468Y-12374936D02*
X11074944Y-12384460D01*
X11074944Y-12384460D02*
X11055896Y-12393984D01*
X11055896Y-12393984D02*
X11008277Y-12393984D01*
X11008277Y-12393984D02*
X10989229Y-12384460D01*
X10989229Y-12384460D02*
X10979706Y-12374936D01*
X11160658Y-12193984D02*
X11293991Y-12193984D01*
X11293991Y-12193984D02*
X11208277Y-12393984D01*
X11465420Y-12193984D02*
X11370182Y-12193984D01*
X11370182Y-12193984D02*
X11360658Y-12289222D01*
X11360658Y-12289222D02*
X11370182Y-12279698D01*
X11370182Y-12279698D02*
X11389229Y-12270174D01*
X11389229Y-12270174D02*
X11436848Y-12270174D01*
X11436848Y-12270174D02*
X11455896Y-12279698D01*
X11455896Y-12279698D02*
X11465420Y-12289222D01*
X11465420Y-12289222D02*
X11474944Y-12308269D01*
X11474944Y-12308269D02*
X11474944Y-12355888D01*
X11474944Y-12355888D02*
X11465420Y-12374936D01*
X11465420Y-12374936D02*
X11455896Y-12384460D01*
X11455896Y-12384460D02*
X11436848Y-12393984D01*
X11436848Y-12393984D02*
X11389229Y-12393984D01*
X11389229Y-12393984D02*
X11370182Y-12384460D01*
X11370182Y-12384460D02*
X11360658Y-12374936D01*
X11551134Y-12193984D02*
X11551134Y-12232079D01*
X11627325Y-12193984D02*
X11627325Y-12232079D01*
X11922563Y-12470174D02*
X11913039Y-12460650D01*
X11913039Y-12460650D02*
X11893991Y-12432079D01*
X11893991Y-12432079D02*
X11884468Y-12413031D01*
X11884468Y-12413031D02*
X11874944Y-12384460D01*
X11874944Y-12384460D02*
X11865420Y-12336841D01*
X11865420Y-12336841D02*
X11865420Y-12298746D01*
X11865420Y-12298746D02*
X11874944Y-12251127D01*
X11874944Y-12251127D02*
X11884468Y-12222555D01*
X11884468Y-12222555D02*
X11893991Y-12203508D01*
X11893991Y-12203508D02*
X11913039Y-12174936D01*
X11913039Y-12174936D02*
X11922563Y-12165412D01*
X11989229Y-12213031D02*
X11998753Y-12203508D01*
X11998753Y-12203508D02*
X12017801Y-12193984D01*
X12017801Y-12193984D02*
X12065420Y-12193984D01*
X12065420Y-12193984D02*
X12084468Y-12203508D01*
X12084468Y-12203508D02*
X12093991Y-12213031D01*
X12093991Y-12213031D02*
X12103515Y-12232079D01*
X12103515Y-12232079D02*
X12103515Y-12251127D01*
X12103515Y-12251127D02*
X12093991Y-12279698D01*
X12093991Y-12279698D02*
X11979706Y-12393984D01*
X11979706Y-12393984D02*
X12103515Y-12393984D01*
X12341610Y-12393984D02*
X12341610Y-12193984D01*
X12427325Y-12393984D02*
X12427325Y-12289222D01*
X12427325Y-12289222D02*
X12417801Y-12270174D01*
X12417801Y-12270174D02*
X12398753Y-12260650D01*
X12398753Y-12260650D02*
X12370182Y-12260650D01*
X12370182Y-12260650D02*
X12351134Y-12270174D01*
X12351134Y-12270174D02*
X12341610Y-12279698D01*
X12551134Y-12393984D02*
X12532087Y-12384460D01*
X12532087Y-12384460D02*
X12522563Y-12374936D01*
X12522563Y-12374936D02*
X12513039Y-12355888D01*
X12513039Y-12355888D02*
X12513039Y-12298746D01*
X12513039Y-12298746D02*
X12522563Y-12279698D01*
X12522563Y-12279698D02*
X12532087Y-12270174D01*
X12532087Y-12270174D02*
X12551134Y-12260650D01*
X12551134Y-12260650D02*
X12579706Y-12260650D01*
X12579706Y-12260650D02*
X12598753Y-12270174D01*
X12598753Y-12270174D02*
X12608277Y-12279698D01*
X12608277Y-12279698D02*
X12617801Y-12298746D01*
X12617801Y-12298746D02*
X12617801Y-12355888D01*
X12617801Y-12355888D02*
X12608277Y-12374936D01*
X12608277Y-12374936D02*
X12598753Y-12384460D01*
X12598753Y-12384460D02*
X12579706Y-12393984D01*
X12579706Y-12393984D02*
X12551134Y-12393984D01*
X12732087Y-12393984D02*
X12713039Y-12384460D01*
X12713039Y-12384460D02*
X12703515Y-12365412D01*
X12703515Y-12365412D02*
X12703515Y-12193984D01*
X12884468Y-12384460D02*
X12865420Y-12393984D01*
X12865420Y-12393984D02*
X12827325Y-12393984D01*
X12827325Y-12393984D02*
X12808277Y-12384460D01*
X12808277Y-12384460D02*
X12798753Y-12365412D01*
X12798753Y-12365412D02*
X12798753Y-12289222D01*
X12798753Y-12289222D02*
X12808277Y-12270174D01*
X12808277Y-12270174D02*
X12827325Y-12260650D01*
X12827325Y-12260650D02*
X12865420Y-12260650D01*
X12865420Y-12260650D02*
X12884468Y-12270174D01*
X12884468Y-12270174D02*
X12893991Y-12289222D01*
X12893991Y-12289222D02*
X12893991Y-12308269D01*
X12893991Y-12308269D02*
X12798753Y-12327317D01*
X12970182Y-12384460D02*
X12989230Y-12393984D01*
X12989230Y-12393984D02*
X13027325Y-12393984D01*
X13027325Y-12393984D02*
X13046372Y-12384460D01*
X13046372Y-12384460D02*
X13055896Y-12365412D01*
X13055896Y-12365412D02*
X13055896Y-12355888D01*
X13055896Y-12355888D02*
X13046372Y-12336841D01*
X13046372Y-12336841D02*
X13027325Y-12327317D01*
X13027325Y-12327317D02*
X12998753Y-12327317D01*
X12998753Y-12327317D02*
X12979706Y-12317793D01*
X12979706Y-12317793D02*
X12970182Y-12298746D01*
X12970182Y-12298746D02*
X12970182Y-12289222D01*
X12970182Y-12289222D02*
X12979706Y-12270174D01*
X12979706Y-12270174D02*
X12998753Y-12260650D01*
X12998753Y-12260650D02*
X13027325Y-12260650D01*
X13027325Y-12260650D02*
X13046372Y-12270174D01*
X13122563Y-12470174D02*
X13132087Y-12460650D01*
X13132087Y-12460650D02*
X13151134Y-12432079D01*
X13151134Y-12432079D02*
X13160658Y-12413031D01*
X13160658Y-12413031D02*
X13170182Y-12384460D01*
X13170182Y-12384460D02*
X13179706Y-12336841D01*
X13179706Y-12336841D02*
X13179706Y-12298746D01*
X13179706Y-12298746D02*
X13170182Y-12251127D01*
X13170182Y-12251127D02*
X13160658Y-12222555D01*
X13160658Y-12222555D02*
X13151134Y-12203508D01*
X13151134Y-12203508D02*
X13132087Y-12174936D01*
X13132087Y-12174936D02*
X13122563Y-12165412D01*
X13484468Y-12470174D02*
X13474944Y-12460650D01*
X13474944Y-12460650D02*
X13455896Y-12432079D01*
X13455896Y-12432079D02*
X13446372Y-12413031D01*
X13446372Y-12413031D02*
X13436849Y-12384460D01*
X13436849Y-12384460D02*
X13427325Y-12336841D01*
X13427325Y-12336841D02*
X13427325Y-12298746D01*
X13427325Y-12298746D02*
X13436849Y-12251127D01*
X13436849Y-12251127D02*
X13446372Y-12222555D01*
X13446372Y-12222555D02*
X13455896Y-12203508D01*
X13455896Y-12203508D02*
X13474944Y-12174936D01*
X13474944Y-12174936D02*
X13484468Y-12165412D01*
X13560658Y-12260650D02*
X13560658Y-12393984D01*
X13560658Y-12279698D02*
X13570182Y-12270174D01*
X13570182Y-12270174D02*
X13589230Y-12260650D01*
X13589230Y-12260650D02*
X13617801Y-12260650D01*
X13617801Y-12260650D02*
X13636849Y-12270174D01*
X13636849Y-12270174D02*
X13646372Y-12289222D01*
X13646372Y-12289222D02*
X13646372Y-12393984D01*
X13770182Y-12393984D02*
X13751134Y-12384460D01*
X13751134Y-12384460D02*
X13741611Y-12374936D01*
X13741611Y-12374936D02*
X13732087Y-12355888D01*
X13732087Y-12355888D02*
X13732087Y-12298746D01*
X13732087Y-12298746D02*
X13741611Y-12279698D01*
X13741611Y-12279698D02*
X13751134Y-12270174D01*
X13751134Y-12270174D02*
X13770182Y-12260650D01*
X13770182Y-12260650D02*
X13798753Y-12260650D01*
X13798753Y-12260650D02*
X13817801Y-12270174D01*
X13817801Y-12270174D02*
X13827325Y-12279698D01*
X13827325Y-12279698D02*
X13836849Y-12298746D01*
X13836849Y-12298746D02*
X13836849Y-12355888D01*
X13836849Y-12355888D02*
X13827325Y-12374936D01*
X13827325Y-12374936D02*
X13817801Y-12384460D01*
X13817801Y-12384460D02*
X13798753Y-12393984D01*
X13798753Y-12393984D02*
X13770182Y-12393984D01*
X13893992Y-12260650D02*
X13970182Y-12260650D01*
X13922563Y-12193984D02*
X13922563Y-12365412D01*
X13922563Y-12365412D02*
X13932087Y-12384460D01*
X13932087Y-12384460D02*
X13951134Y-12393984D01*
X13951134Y-12393984D02*
X13970182Y-12393984D01*
X14189230Y-12260650D02*
X14189230Y-12460650D01*
X14189230Y-12270174D02*
X14208277Y-12260650D01*
X14208277Y-12260650D02*
X14246373Y-12260650D01*
X14246373Y-12260650D02*
X14265420Y-12270174D01*
X14265420Y-12270174D02*
X14274944Y-12279698D01*
X14274944Y-12279698D02*
X14284468Y-12298746D01*
X14284468Y-12298746D02*
X14284468Y-12355888D01*
X14284468Y-12355888D02*
X14274944Y-12374936D01*
X14274944Y-12374936D02*
X14265420Y-12384460D01*
X14265420Y-12384460D02*
X14246373Y-12393984D01*
X14246373Y-12393984D02*
X14208277Y-12393984D01*
X14208277Y-12393984D02*
X14189230Y-12384460D01*
X14398753Y-12393984D02*
X14379706Y-12384460D01*
X14379706Y-12384460D02*
X14370182Y-12365412D01*
X14370182Y-12365412D02*
X14370182Y-12193984D01*
X14560658Y-12393984D02*
X14560658Y-12289222D01*
X14560658Y-12289222D02*
X14551134Y-12270174D01*
X14551134Y-12270174D02*
X14532087Y-12260650D01*
X14532087Y-12260650D02*
X14493992Y-12260650D01*
X14493992Y-12260650D02*
X14474944Y-12270174D01*
X14560658Y-12384460D02*
X14541611Y-12393984D01*
X14541611Y-12393984D02*
X14493992Y-12393984D01*
X14493992Y-12393984D02*
X14474944Y-12384460D01*
X14474944Y-12384460D02*
X14465420Y-12365412D01*
X14465420Y-12365412D02*
X14465420Y-12346365D01*
X14465420Y-12346365D02*
X14474944Y-12327317D01*
X14474944Y-12327317D02*
X14493992Y-12317793D01*
X14493992Y-12317793D02*
X14541611Y-12317793D01*
X14541611Y-12317793D02*
X14560658Y-12308269D01*
X14627325Y-12260650D02*
X14703515Y-12260650D01*
X14655896Y-12193984D02*
X14655896Y-12365412D01*
X14655896Y-12365412D02*
X14665420Y-12384460D01*
X14665420Y-12384460D02*
X14684468Y-12393984D01*
X14684468Y-12393984D02*
X14703515Y-12393984D01*
X14846373Y-12384460D02*
X14827325Y-12393984D01*
X14827325Y-12393984D02*
X14789230Y-12393984D01*
X14789230Y-12393984D02*
X14770182Y-12384460D01*
X14770182Y-12384460D02*
X14760658Y-12365412D01*
X14760658Y-12365412D02*
X14760658Y-12289222D01*
X14760658Y-12289222D02*
X14770182Y-12270174D01*
X14770182Y-12270174D02*
X14789230Y-12260650D01*
X14789230Y-12260650D02*
X14827325Y-12260650D01*
X14827325Y-12260650D02*
X14846373Y-12270174D01*
X14846373Y-12270174D02*
X14855896Y-12289222D01*
X14855896Y-12289222D02*
X14855896Y-12308269D01*
X14855896Y-12308269D02*
X14760658Y-12327317D01*
X15027325Y-12393984D02*
X15027325Y-12193984D01*
X15027325Y-12384460D02*
X15008277Y-12393984D01*
X15008277Y-12393984D02*
X14970182Y-12393984D01*
X14970182Y-12393984D02*
X14951134Y-12384460D01*
X14951134Y-12384460D02*
X14941611Y-12374936D01*
X14941611Y-12374936D02*
X14932087Y-12355888D01*
X14932087Y-12355888D02*
X14932087Y-12298746D01*
X14932087Y-12298746D02*
X14941611Y-12279698D01*
X14941611Y-12279698D02*
X14951134Y-12270174D01*
X14951134Y-12270174D02*
X14970182Y-12260650D01*
X14970182Y-12260650D02*
X15008277Y-12260650D01*
X15008277Y-12260650D02*
X15027325Y-12270174D01*
X15103515Y-12470174D02*
X15113039Y-12460650D01*
X15113039Y-12460650D02*
X15132087Y-12432079D01*
X15132087Y-12432079D02*
X15141611Y-12413031D01*
X15141611Y-12413031D02*
X15151134Y-12384460D01*
X15151134Y-12384460D02*
X15160658Y-12336841D01*
X15160658Y-12336841D02*
X15160658Y-12298746D01*
X15160658Y-12298746D02*
X15151134Y-12251127D01*
X15151134Y-12251127D02*
X15141611Y-12222555D01*
X15141611Y-12222555D02*
X15132087Y-12203508D01*
X15132087Y-12203508D02*
X15113039Y-12174936D01*
X15113039Y-12174936D02*
X15103515Y-12165412D01*
M02*
